<svg width="1000" height="1000" viewBox="0 0 1000 1000" fill="none" xmlns="http://www.w3.org/2000/svg">
<path d="M441.667 691.667L735.417 397.917L677.083 339.583L441.667 575L322.917 456.25L264.583 514.583L441.667 691.667ZM500 916.667C442.361 916.667 388.195 905.722 337.5 883.833C286.806 861.972 242.708 832.292 205.208 794.792C167.708 757.292 138.028 713.194 116.167 662.5C94.2778 611.806 83.3333 557.639 83.3333 500C83.3333 442.361 94.2778 388.194 116.167 337.5C138.028 286.806 167.708 242.708 205.208 205.208C242.708 167.708 286.806 138.014 337.5 116.125C388.195 94.2638 442.361 83.3333 500 83.3333C557.639 83.3333 611.806 94.2638 662.5 116.125C713.195 138.014 757.292 167.708 794.792 205.208C832.292 242.708 861.972 286.806 883.833 337.5C905.722 388.194 916.667 442.361 916.667 500C916.667 557.639 905.722 611.806 883.833 662.5C861.972 713.194 832.292 757.292 794.792 794.792C757.292 832.292 713.195 861.972 662.5 883.833C611.806 905.722 557.639 916.667 500 916.667Z" fill="#5BEF00"/>
</svg>
