<svg width="12" height="11" viewBox="0 0 12 11" fill="none" xmlns="http://www.w3.org/2000/svg">
<path d="M4.46567 11C4.07453 11 3.70408 10.8405 3.4667 10.5655L0.254012 6.85576C0.154685 6.74119 0.0821696 6.61064 0.040612 6.47157C-0.000945584 6.3325 -0.0107306 6.18763 0.0118162 6.04525C0.0343629 5.90287 0.0887993 5.76577 0.172013 5.64179C0.255228 5.5178 0.365588 5.40937 0.496784 5.32268C0.627934 5.23564 0.777452 5.17207 0.936767 5.13561C1.09608 5.09916 1.26207 5.09054 1.4252 5.11025C1.58833 5.12996 1.74541 5.17761 1.88744 5.25047C2.02946 5.32333 2.15363 5.41997 2.25284 5.53485L4.36676 7.97393L9.68168 0.515236C9.85795 0.26897 10.1388 0.0938549 10.4626 0.0283022C10.7864 -0.0372506 11.1267 0.0121115 11.409 0.165561C11.9961 0.484591 12.1768 1.16037 11.81 1.67427L5.53027 10.483C5.42307 10.634 5.27531 10.7599 5.09982 10.8497C4.92432 10.9396 4.7264 10.9906 4.52321 10.9984C4.50343 11 4.48545 11 4.46567 11Z" fill="white"/>
</svg>
