<svg xmlns="http://www.w3.org/2000/svg" xmlns:xlink="http://www.w3.org/1999/xlink" width="500" zoomAndPan="magnify" viewBox="0 0 375 131.249995" height="175" preserveAspectRatio="xMidYMid meet" version="1.0"><defs><g/></defs><g fill="currentColor" fill-opacity="1"><g transform="translate(4.683373, 84.332933)"><g><path d="M 36.703125 0 L 18.65625 0 L 18.65625 -32.375 L 1.796875 -32.375 L 1.796875 -43.03125 L 53.546875 -43.03125 L 53.546875 -32.375 L 36.703125 -32.375 Z M 36.703125 0 "/></g></g></g><g fill="currentColor" fill-opacity="1"><g transform="translate(57.014454, 84.332933)"><g><path d="M 30.25 0.921875 C 19.757812 0.921875 12.375 -1.253906 8.09375 -5.609375 C 4.5 -9.265625 2.703125 -14.550781 2.703125 -21.46875 L 2.703125 -43 L 20.75 -43 L 20.75 -21.46875 C 20.75 -18.46875 21.257812 -16.097656 22.28125 -14.359375 C 23.738281 -11.859375 26.394531 -10.609375 30.25 -10.609375 C 34.144531 -10.609375 36.816406 -11.859375 38.265625 -14.359375 C 39.273438 -16.160156 39.78125 -18.53125 39.78125 -21.46875 L 39.78125 -43 L 57.84375 -43 L 57.84375 -21.234375 C 57.84375 -14.472656 56.050781 -9.265625 52.46875 -5.609375 C 48.175781 -1.253906 40.769531 0.921875 30.25 0.921875 Z M 30.25 0.921875 "/></g></g></g><g fill="currentColor" fill-opacity="1"><g transform="translate(114.5318, 84.332933)"><g><path d="M 68.625 0 L 47.171875 0 L 22.84375 -29.109375 L 22.84375 0 L 4.796875 0 L 4.796875 -43.03125 L 26.265625 -43.03125 L 50.578125 -14.0625 L 50.578125 -43.03125 L 68.625 -43.03125 Z M 68.625 0 "/></g></g></g><g fill="currentColor" fill-opacity="1"><g transform="translate(184.939863, 84.332933)"><g><path d="M 56.609375 0 L 4.796875 0 L 4.796875 -43.03125 L 54.234375 -43.03125 L 54.234375 -32.375 L 22.84375 -32.375 L 22.84375 -25.640625 L 49.390625 -25.640625 L 49.390625 -17.359375 L 22.84375 -17.359375 L 22.84375 -10.640625 L 56.609375 -10.640625 Z M 56.609375 0 "/></g></g></g><g fill="currentColor" fill-opacity="1"><g transform="translate(240.92831, 84.332933)"><g><path d="M 8.546875 -32.375 L 3.328125 -32.375 L 1.796875 -38.203125 L 1.796875 -43 L 10.078125 -43 L 10.078125 -38.203125 Z M 8.546875 -32.375 "/></g></g></g><g fill="currentColor" fill-opacity="1"><g transform="translate(249.790696, 84.332933)"><g><path d="M 30.25 0.921875 C 19.757812 0.921875 12.375 -1.253906 8.09375 -5.609375 C 4.5 -9.265625 2.703125 -14.550781 2.703125 -21.46875 L 2.703125 -43 L 20.75 -43 L 20.75 -21.46875 C 20.75 -18.46875 21.257812 -16.097656 22.28125 -14.359375 C 23.738281 -11.859375 26.394531 -10.609375 30.25 -10.609375 C 34.144531 -10.609375 36.816406 -11.859375 38.265625 -14.359375 C 39.273438 -16.160156 39.78125 -18.53125 39.78125 -21.46875 L 39.78125 -43 L 57.84375 -43 L 57.84375 -21.234375 C 57.84375 -14.472656 56.050781 -9.265625 52.46875 -5.609375 C 48.175781 -1.253906 40.769531 0.921875 30.25 0.921875 Z M 30.25 0.921875 "/></g></g></g><g fill="currentColor" fill-opacity="1"><g transform="translate(307.308042, 84.332933)"><g><path d="M 22.84375 0 L 4.796875 0 L 4.796875 -43.03125 L 34.15625 -43.03125 C 41.164062 -43.03125 46.820312 -42.503906 51.125 -41.453125 C 55.4375 -40.398438 58.582031 -38.75 60.5625 -36.5 C 62.539062 -34.25 63.53125 -31.316406 63.53125 -27.703125 C 63.53125 -24.109375 62.539062 -21.1875 60.5625 -18.9375 C 58.582031 -16.6875 55.4375 -15.035156 51.125 -13.984375 C 46.820312 -12.929688 41.164062 -12.40625 34.15625 -12.40625 L 22.84375 -12.40625 Z M 22.84375 -23.03125 L 33.15625 -23.0625 C 36.039062 -23.0625 38.3125 -23.175781 39.96875 -23.40625 C 41.625 -23.632812 42.847656 -23.957031 43.640625 -24.375 C 44.429688 -24.789062 44.9375 -25.285156 45.15625 -25.859375 C 45.375 -26.429688 45.484375 -27.046875 45.484375 -27.703125 C 45.484375 -28.378906 45.375 -29.003906 45.15625 -29.578125 C 44.9375 -30.148438 44.429688 -30.644531 43.640625 -31.0625 C 42.847656 -31.476562 41.625 -31.800781 39.96875 -32.03125 C 38.3125 -32.257812 36.039062 -32.375 33.15625 -32.375 L 22.84375 -32.375 Z M 22.84375 -23.03125 "/></g></g></g></svg>