<svg width="27" height="20" viewBox="0 0 27 20" fill="none" xmlns="http://www.w3.org/2000/svg">
<path d="M25 3.5C25.8284 3.5 26.5 2.82843 26.5 2C26.5 1.17157 25.8284 0.5 25 0.5L25 3.5ZM-4.70958e-10 3.5L25 3.5L25 0.5L4.70958e-10 0.5L-4.70958e-10 3.5Z" fill="currentColor"/>
<path d="M20 11.5C20.8284 11.5 21.5 10.8284 21.5 10C21.5 9.17157 20.8284 8.5 20 8.5L20 11.5ZM-4.70958e-10 11.5L20 11.5L20 8.5L4.70958e-10 8.5L-4.70958e-10 11.5Z" fill="currentColor"/>
<path d="M15 19.5C15.8284 19.5 16.5 18.8284 16.5 18C16.5 17.1716 15.8284 16.5 15 16.5L15 19.5ZM-4.70958e-10 19.5L15 19.5L15 16.5L4.70958e-10 16.5L-4.70958e-10 19.5Z" fill="currentColor"/>
</svg>
