<svg width="20" height="21" viewBox="0 0 20 21" fill="none" xmlns="http://www.w3.org/2000/svg">
<path fill-rule="evenodd" clip-rule="evenodd" d="M13.3565 18.7895C13.3566 19.3472 13.1434 19.8843 12.7596 20.2932C12.3757 20.7022 11.8496 20.9526 11.2867 20.9945L11.1189 21H8.8813C8.31679 21.0002 7.77307 20.7896 7.35914 20.4103C6.9452 20.0311 6.69166 19.5114 6.64932 18.9553L6.64372 18.7895H13.3565ZM10.0001 1.0545e-09C12.0307 -3.30972e-05 13.9819 0.779093 15.4421 2.17303C16.9024 3.56697 17.7575 5.46673 17.8271 7.47158L17.8316 7.73684V11.8971L19.87 15.9246C19.959 16.1004 20.0035 16.2948 19.9998 16.4912C19.9961 16.6877 19.9442 16.8803 19.8486 17.0526C19.753 17.225 19.6166 17.3718 19.451 17.4807C19.2854 17.5895 19.0956 17.6571 18.8978 17.6776L18.7691 17.6842H1.23103C1.03207 17.6843 0.836061 17.6367 0.659801 17.5455C0.48354 17.4543 0.332284 17.3223 0.218994 17.1607C0.105703 16.9991 0.0337566 16.8128 0.00931879 16.6178C-0.015119 16.4227 0.00868087 16.2247 0.0786789 16.0407L0.130143 15.9246L2.16857 11.8971V7.73684C2.16857 5.6849 2.99368 3.71701 4.46237 2.26607C5.93107 0.815129 7.92304 1.0545e-09 10.0001 1.0545e-09V1.0545e-09ZM10.0001 2.21053C8.55857 2.21061 7.17273 2.76044 6.13157 3.74536C5.09041 4.73028 4.47431 6.07425 4.41174 7.497L4.40615 7.73684V11.8971C4.40616 12.1712 4.35457 12.4429 4.25399 12.6984L4.17009 12.8863L2.8611 15.4737H17.1402L15.8312 12.8852C15.707 12.6401 15.63 12.3744 15.6041 12.1015L15.594 11.8971V7.73684C15.594 6.27117 15.0047 4.86553 13.9556 3.82915C12.9065 2.79276 11.4837 2.21053 10.0001 2.21053V2.21053Z" fill="#211E1E"/>
</svg>
