<svg width="20" height="20" viewBox="0 0 20 20" fill="none" xmlns="http://www.w3.org/2000/svg">
<path d="M9.40002 16.161L16.796 8.76503C15.5517 8.2455 14.4216 7.48645 13.47 6.53103C12.5142 5.57924 11.7547 4.4488 11.235 3.20403L3.83902 10.6C3.26202 11.177 2.97302 11.466 2.72502 11.784C2.43213 12.1593 2.18098 12.5654 1.97602 12.995C1.80302 13.359 1.67402 13.747 1.41602 14.521L0.054019 18.604C-0.00866732 18.791 -0.0179678 18.9917 0.0271628 19.1836C0.0722933 19.3756 0.170066 19.5511 0.30949 19.6906C0.448915 19.83 0.624464 19.9278 0.816406 19.9729C1.00835 20.018 1.20907 20.0087 1.39602 19.946L5.47902 18.584C6.25402 18.326 6.64102 18.197 7.00502 18.024C7.43502 17.819 7.84102 17.568 8.21602 17.275C8.53402 17.027 8.82302 16.738 9.40002 16.161ZM18.848 6.71303C19.5855 5.97559 19.9997 4.97542 19.9997 3.93253C19.9997 2.88964 19.5855 1.88946 18.848 1.15203C18.1106 0.414591 17.1104 0.000305184 16.0675 0.000305176C15.0246 0.000305168 14.0245 0.414591 13.287 1.15203L12.4 2.03903L12.438 2.15003C12.8751 3.40074 13.5904 4.53593 14.53 5.47003C15.492 6.43773 16.667 7.16713 17.961 7.60003L18.848 6.71303Z" fill="black"/>
</svg>
