<?xml version="1.0" encoding="UTF-8" standalone="no"?>
<!-- Created with Inkscape (http://www.inkscape.org/) -->

<svg
   version="1.1"
   id="svg2"
   width="449.73334"
   height="403.57333"
   viewBox="0 0 449.73334 403.57333"
   sodipodi:docname="Basic_Elements_(143).eps"
   xmlns:inkscape="http://www.inkscape.org/namespaces/inkscape"
   xmlns:sodipodi="http://sodipodi.sourceforge.net/DTD/sodipodi-0.dtd"
   xmlns="http://www.w3.org/2000/svg"
   xmlns:svg="http://www.w3.org/2000/svg">
  <defs
     id="defs6" />
  <g
     id="g8"
     inkscape:groupmode="layer"
     inkscape:label="ink_ext_XXXXXX"
     transform="matrix(1.3333333,0,0,-1.3333333,0,403.57333)">
    <g
       id="g10"
       transform="scale(0.1)">
      <path
         d="M 1437.77,38.1914 C 1396.62,8.21875 1344.07,-6.07813 1289.92,2.44141 1176.87,19.7891 1067.31,49.6602 963.008,90.8594 857.48,132.551 757.031,186 663.473,249.969 569.59,314.16 482.996,388.648 405.492,472.148 328.637,554.969 260.863,646.301 203.938,744.898 101.09,923.039 38.3672,1113.78 12.9922,1306.52 c -26.3281,199.95 -12.289075,401.45 38.9531,592.7 51.2427,191.25 139.8357,372.76 262.6207,532.77 118.344,154.23 268.028,288.05 446.164,390.91 178.149,102.85 368.88,165.56 561.62,190.94 199.96,26.32 401.46,12.29 592.7,-38.95 191.25,-51.25 372.77,-139.85 532.78,-262.62 154.23,-118.35 288.05,-268.03 390.9,-446.17 v 0 c 102.85,-178.15 165.57,-368.88 190.94,-561.62 26.33,-199.96 12.29,-401.46 -38.95,-592.7 -14.99,-55.93 -33.18,-111.04 -54.49,-165.05 l -326.44,274.38 c 27.88,126.64 42.62,301.55 25.49,431.68 -18.63,141.57 -65.03,282.24 -141.27,414.28 v 0.01 c -76.23,132.05 -174.86,242.56 -288.14,329.48 -117.85,90.42 -252.05,155.81 -393.85,193.81 -141.8,37.99 -290.7,48.46 -437.98,29.08 C 1232.47,2600.81 1091.8,2554.42 959.75,2478.18 827.703,2401.95 717.191,2303.32 630.27,2190.04 539.844,2072.18 474.453,1937.99 436.465,1796.19 398.469,1654.39 387.996,1505.48 407.383,1358.21 426.016,1216.63 472.406,1075.96 548.648,943.922 591.391,869.891 641.418,802.141 697.449,741.559 754.551,679.82 818.059,625.039 886.637,578.16 955.551,531.031 1030,491.512 1108.65,460.469 c 77.58,-30.59 158.99,-52.778 242.94,-65.66 54.15,-8.52 99.72,-38.149 129.6,-79.168 29.97,-41.153 44.26,-93.692 35.75,-147.852 -8.51,-54.16 -38.15,-99.7187 -79.17,-129.5976"
         style="fill:#191716;fill-opacity:1;fill-rule:nonzero;stroke:none"
         id="path12" />
      <path
         d="m 2191.07,1564.85 c 35.73,-358.35 71.16,-716.729 106.88,-1075.08 358.35,35.718 716.67,71.73 1075.03,107.449 -393.97,322.543 -787.93,645.091 -1181.91,967.631"
         style="fill:#191716;fill-opacity:1;fill-rule:evenodd;stroke:none"
         id="path14" />
    </g>
  </g>
</svg>
