<svg width="24" height="24" viewBox="0 0 24 24" fill="none" xmlns="http://www.w3.org/2000/svg">
<g clip-path="url(#clip0_3960_3848)">
<path fill-rule="evenodd" clip-rule="evenodd" d="M8.29279 12.707C8.10532 12.5195 8 12.2652 8 12C8 11.7348 8.10532 11.4805 8.29279 11.293L13.9498 5.636C14.042 5.54049 14.1524 5.46431 14.2744 5.4119C14.3964 5.35949 14.5276 5.3319 14.6604 5.33075C14.7932 5.3296 14.9248 5.3549 15.0477 5.40518C15.1706 5.45546 15.2823 5.52971 15.3762 5.62361C15.4701 5.7175 15.5443 5.82915 15.5946 5.95205C15.6449 6.07494 15.6702 6.20662 15.669 6.3394C15.6679 6.47218 15.6403 6.6034 15.5879 6.7254C15.5355 6.84741 15.4593 6.95775 15.3638 7.05L10.4138 12L15.3638 16.95C15.5459 17.1386 15.6467 17.3912 15.6445 17.6534C15.6422 17.9156 15.537 18.1664 15.3516 18.3518C15.1662 18.5372 14.9154 18.6424 14.6532 18.6447C14.391 18.647 14.1384 18.5462 13.9498 18.364L8.29279 12.707Z" fill="#646161"/>
</g>
<defs>
<clipPath id="clip0_3960_3848">
<rect width="24" height="24" fill="white"/>
</clipPath>
</defs>
</svg>
