<svg width="26" height="26" viewBox="0 0 26 26" fill="none" xmlns="http://www.w3.org/2000/svg">
<mask id="path-1-inside-1_4211_480" fill="white">
<path d="M12.6667 0C14.3464 0 15.9573 0.66726 17.145 1.85499C18.3327 3.04272 19 4.65363 19 6.33333C19 8.01304 18.3327 9.62395 17.145 10.8117C15.9573 11.9994 14.3464 12.6667 12.6667 12.6667C10.987 12.6667 9.37605 11.9994 8.18832 10.8117C7.00059 9.62395 6.33333 8.01304 6.33333 6.33333C6.33333 4.65363 7.00059 3.04272 8.18832 1.85499C9.37605 0.66726 10.987 0 12.6667 0M12.6667 15.8333C19.665 15.8333 25.3333 18.6675 25.3333 22.1667V25.3333H0V22.1667C0 18.6675 5.66833 15.8333 12.6667 15.8333Z"/>
</mask>
<path d="M19 6.33333L21 6.33333L19 6.33333ZM12.6667 12.6667L12.6667 14.6667L12.6667 12.6667ZM6.33333 6.33333L4.33333 6.33333L6.33333 6.33333ZM25.3333 25.3333V27.3333H27.3333V25.3333H25.3333ZM0 25.3333H-2V27.3333H0V25.3333ZM12.6667 2C13.8159 2 14.9181 2.45655 15.7308 3.2692L18.5592 0.440777C16.9964 -1.12203 14.8768 -2 12.6667 -2L12.6667 2ZM15.7308 3.2692C16.5435 4.08186 17 5.18406 17 6.33333L21 6.33333C21 4.1232 20.122 2.00358 18.5592 0.440777L15.7308 3.2692ZM17 6.33333C17 7.48261 16.5435 8.58481 15.7308 9.39746L18.5592 12.2259C20.122 10.6631 21 8.54347 21 6.33333L17 6.33333ZM15.7308 9.39746C14.9181 10.2101 13.8159 10.6667 12.6667 10.6667L12.6667 14.6667C14.8768 14.6667 16.9964 13.7887 18.5592 12.2259L15.7308 9.39746ZM12.6667 10.6667C11.5174 10.6667 10.4152 10.2101 9.60254 9.39746L6.77411 12.2259C8.33691 13.7887 10.4565 14.6667 12.6667 14.6667L12.6667 10.6667ZM9.60254 9.39746C8.78988 8.58481 8.33333 7.48261 8.33333 6.33333L4.33333 6.33333C4.33333 8.54347 5.21131 10.6631 6.77411 12.2259L9.60254 9.39746ZM8.33333 6.33333C8.33333 5.18406 8.78988 4.08186 9.60254 3.2692L6.77411 0.440777C5.21131 2.00358 4.33333 4.1232 4.33333 6.33333L8.33333 6.33333ZM9.60254 3.2692C10.4152 2.45655 11.5174 2 12.6667 2L12.6667 -2C10.4565 -2 8.33691 -1.12203 6.77411 0.440777L9.60254 3.2692ZM12.6667 17.8333C15.9229 17.8333 18.7705 18.4969 20.7299 19.4767C22.8085 20.5159 23.3333 21.5823 23.3333 22.1667H27.3333C27.3333 19.2519 25.024 17.1516 22.5188 15.899C19.8945 14.5868 16.4087 13.8333 12.6667 13.8333V17.8333ZM23.3333 22.1667V25.3333H27.3333V22.1667H23.3333ZM25.3333 23.3333H0V27.3333H25.3333V23.3333ZM2 25.3333V22.1667H-2V25.3333H2ZM2 22.1667C2 21.5823 2.52483 20.5159 4.60339 19.4767C6.56284 18.4969 9.41041 17.8333 12.6667 17.8333V13.8333C8.92459 13.8333 5.43883 14.5868 2.81453 15.899C0.309339 17.1516 -2 19.2519 -2 22.1667H2Z" fill="black" mask="url(#path-1-inside-1_4211_480)"/>
</svg>
